<svg width="189" height="25" viewBox="0 0 189 25" fill="none" xmlns="http://www.w3.org/2000/svg">
<path d="M33.5324 9.67424H31.6118C31.4543 9.67424 31.3599 9.5483 31.3599 9.42236V7.974C31.3599 7.84806 31.4543 7.72212 31.6118 7.72212H37.4996C37.657 7.72212 37.7515 7.84806 37.7515 7.974V9.42236C37.7515 9.5483 37.657 9.67424 37.4996 9.67424H35.579V16.79C35.579 16.916 35.453 17.0419 35.3271 17.0419H33.7213C33.5954 17.0419 33.4694 16.916 33.4694 16.79V9.67424H33.5324ZM40.0185 16.79C40.0185 16.916 40.1444 17.0419 40.2704 17.0419H41.8447C42.0021 17.0419 42.0965 16.916 42.0965 16.79V13.2636H45.9063V16.79C45.9063 16.916 46.0008 17.0419 46.1582 17.0419H47.7325C47.8585 17.0419 47.9844 16.916 47.9844 16.79V7.974C47.9844 7.84806 47.8585 7.72212 47.7325 7.72212H46.1582C46.0008 7.72212 45.9063 7.84806 45.9063 7.974V11.343H42.0965V7.974C42.0965 7.84806 42.0021 7.72212 41.8447 7.72212H40.2704C40.1444 7.72212 40.0185 7.84806 40.0185 7.974V16.79ZM51.2904 16.79C51.2904 16.916 51.3849 17.0419 51.5423 17.0419H57.0523C57.2098 17.0419 57.3042 16.916 57.3042 16.79V15.3417C57.3042 15.2158 57.2098 15.0898 57.0523 15.0898H53.3685V13.2951H56.4226C56.5486 13.2951 56.6745 13.2007 56.6745 13.0432V11.5949C56.6745 11.4689 56.5486 11.343 56.4226 11.343H53.3685V9.70573H57.0523C57.2098 9.70573 57.3042 9.57979 57.3042 9.45384V8.00549C57.3042 7.87955 57.2098 7.75361 57.0523 7.75361H51.5423C51.3849 7.75361 51.2904 7.87955 51.2904 8.00549V16.79ZM67.6316 17.0105C67.6946 17.0734 67.7575 17.1679 67.852 17.1679H67.9779C68.0724 17.1679 68.1668 17.1049 68.1983 17.0105L72.3545 8.03698C72.4174 7.84806 72.323 7.69063 72.1341 7.69063H70.3394C70.2449 7.69063 70.119 7.7536 70.119 7.84806L67.915 12.6969H67.852L65.648 7.84806C65.6165 7.78509 65.522 7.69063 65.4276 7.69063H63.6329C63.4125 7.69063 63.318 7.87955 63.4125 8.03698L67.6316 17.0105ZM74.527 16.79C74.527 16.916 74.6529 17.0419 74.7789 17.0419H76.3847C76.5106 17.0419 76.6365 16.916 76.6365 16.79V7.974C76.6365 7.84806 76.5106 7.72212 76.3847 7.72212H74.7789C74.6529 7.72212 74.527 7.84806 74.527 7.974V16.79ZM81.0131 16.79C81.0131 16.916 81.139 17.0419 81.265 17.0419H82.8707C82.9967 17.0419 83.1226 16.916 83.1226 16.79V9.67424H85.0433C85.2007 9.67424 85.2952 9.5483 85.2952 9.42236V7.974C85.2952 7.84806 85.2007 7.72212 85.0433 7.72212H79.1554C78.998 7.72212 78.9035 7.84806 78.9035 7.974V9.42236C78.9035 9.5483 78.998 9.67424 79.1554 9.67424H81.076V16.79H81.0131ZM89.2309 13.8619L90.2384 11.6579L91.246 13.8619H89.2309ZM85.7989 16.6641C85.736 16.853 85.8304 17.0105 86.0193 17.0105H87.4992C87.7511 17.0105 87.9085 16.853 87.9715 16.6956L88.4437 15.6251H92.0646L92.5369 16.6641C92.6628 16.916 92.7573 17.0105 93.0092 17.0105H94.489C94.7094 17.0105 94.8039 16.8215 94.7094 16.6641L90.5533 7.69063C90.4903 7.62766 90.4274 7.5332 90.3329 7.5332H90.1755C90.081 7.5332 89.9865 7.59617 89.9551 7.69063L85.7989 16.6641ZM96.5986 16.7271C96.5671 16.916 96.693 17.0105 96.8505 17.0105H98.4248C98.5507 17.0105 98.6452 16.916 98.6767 16.79L99.2434 12.6654H99.2749L101.542 16.979C101.605 17.0419 101.699 17.1364 101.762 17.1364H101.983C102.046 17.1364 102.172 17.0734 102.203 16.979L104.439 12.6654H104.47L105.068 16.79C105.068 16.8845 105.194 17.0105 105.32 17.0105H106.894C107.052 17.0105 107.178 16.8845 107.146 16.7271L105.667 7.78509C105.635 7.65914 105.541 7.56469 105.446 7.56469H105.226C105.163 7.56469 105.037 7.62766 105.005 7.69063L101.92 13.4211H101.888L98.7396 7.69063C98.6767 7.62766 98.5822 7.56469 98.5192 7.56469H98.2988C98.2044 7.56469 98.0784 7.65914 98.0784 7.78509L96.5986 16.7271ZM109.854 16.79C109.854 16.916 109.98 17.0419 110.106 17.0419H111.712C111.838 17.0419 111.964 16.916 111.964 16.79V7.974C111.964 7.84806 111.838 7.72212 111.712 7.72212H110.106C109.98 7.72212 109.854 7.84806 109.854 7.974V16.79ZM115.207 16.79C115.207 16.916 115.333 17.0419 115.459 17.0419H117.033C117.19 17.0419 117.285 16.916 117.285 16.79V11.8468L122.543 17.1364C122.574 17.1679 122.669 17.1994 122.732 17.1994H122.952C123.078 17.1994 123.204 17.1049 123.204 16.979V7.974C123.204 7.84806 123.078 7.72212 122.952 7.72212H121.346C121.189 7.72212 121.095 7.84806 121.095 7.974V12.6969L115.773 7.59618H115.427C115.301 7.59618 115.175 7.69063 115.175 7.81657L115.207 16.79ZM130.54 15.751C130.446 15.9399 130.477 15.9714 130.603 16.1288C130.918 16.4437 131.863 17.1364 133.594 17.1364C135.547 17.1364 136.743 15.751 136.743 14.3971C136.743 12.6024 135.106 11.7838 134.035 11.343C132.996 10.9337 132.587 10.5558 132.587 10.0521C132.587 9.67424 132.965 9.35938 133.437 9.35938C134.256 9.35938 135.232 10.0836 135.358 10.1465C135.484 10.241 135.736 10.115 135.798 9.95762L136.491 8.95007C136.554 8.85561 136.554 8.60373 136.428 8.54075C136.05 8.25738 134.948 7.5332 133.563 7.5332C131.516 7.5332 130.509 8.85561 130.509 10.178C130.509 11.7838 131.957 12.6654 133.091 13.1062C134.004 13.484 134.445 13.8933 134.445 14.4286C134.445 14.9009 134.067 15.2158 133.532 15.2158C132.65 15.2158 131.705 14.5231 131.642 14.4916C131.548 14.4286 131.296 14.3971 131.202 14.5545L130.54 15.751ZM139.451 16.79C139.451 16.916 139.577 17.0419 139.703 17.0419H141.277C141.434 17.0419 141.529 16.916 141.529 16.79V13.2636H145.339V16.79C145.339 16.916 145.433 17.0419 145.591 17.0419H147.165C147.291 17.0419 147.417 16.916 147.417 16.79V7.974C147.417 7.84806 147.291 7.72212 147.165 7.72212H145.591C145.433 7.72212 145.339 7.84806 145.339 7.974V11.343H141.529V7.974C141.529 7.84806 141.434 7.72212 141.277 7.72212H139.703C139.577 7.72212 139.451 7.84806 139.451 7.974V16.79ZM154.847 15.0268C153.399 15.0268 152.203 13.8304 152.203 12.382C152.203 10.9022 153.399 9.70573 154.847 9.70573C156.327 9.70573 157.524 10.9022 157.524 12.382C157.492 13.8619 156.327 15.0268 154.847 15.0268ZM154.847 7.59618C152.171 7.59618 150.062 9.73721 150.062 12.382C150.062 15.0583 152.171 17.1679 154.847 17.1679C157.524 17.1679 159.633 15.0583 159.633 12.382C159.665 9.73721 157.492 7.59618 154.847 7.59618ZM164.356 11.7208V9.67424H165.616C166.182 9.67424 166.655 10.0836 166.655 10.6818C166.655 11.28 166.182 11.7208 165.616 11.7208H164.356ZM162.31 16.79C162.31 16.916 162.404 17.0419 162.561 17.0419H164.136C164.262 17.0419 164.388 16.916 164.388 16.79V13.6729H165.773C167.41 13.6729 168.733 12.3505 168.733 10.6818C168.733 9.07601 167.41 7.75361 165.742 7.75361H162.53C162.373 7.75361 162.278 7.87955 162.278 8.00549L162.31 16.79ZM173.109 11.7208V9.67424H174.369C174.935 9.67424 175.408 10.0836 175.408 10.6818C175.408 11.28 174.935 11.7208 174.369 11.7208H173.109ZM171.063 16.79C171.063 16.916 171.157 17.0419 171.315 17.0419H172.889C173.015 17.0419 173.141 16.916 173.141 16.79V13.6729H174.526C176.163 13.6729 177.486 12.3505 177.486 10.6818C177.486 9.07601 176.163 7.75361 174.495 7.75361H171.283C171.126 7.75361 171.031 7.87955 171.031 8.00549L171.063 16.79ZM179.784 16.79C179.784 16.916 179.879 17.0419 180.036 17.0419H185.546C185.704 17.0419 185.798 16.916 185.798 16.79V15.3417C185.798 15.2158 185.704 15.0898 185.546 15.0898H181.862V13.2951H184.916C185.042 13.2951 185.168 13.2007 185.168 13.0432V11.5949C185.168 11.4689 185.042 11.343 184.916 11.343H181.862V9.70573H185.546C185.704 9.70573 185.798 9.57979 185.798 9.45384V8.00549C185.798 7.87955 185.704 7.75361 185.546 7.75361H180.036C179.879 7.75361 179.784 7.87955 179.784 8.00549V16.79Z" fill="#14377D"/>
<path d="M188.947 8.66747C188.947 9.20273 188.506 9.67501 187.939 9.67501C187.404 9.67501 186.932 9.23422 186.932 8.66747C186.932 8.13221 187.372 7.69141 187.939 7.69141C188.474 7.69141 188.947 8.10072 188.947 8.66747ZM187.184 8.66747C187.184 9.10827 187.53 9.45462 187.939 9.45462C188.349 9.45462 188.695 9.10827 188.695 8.66747C188.695 8.22667 188.38 7.88032 187.939 7.88032C187.53 7.91181 187.184 8.22667 187.184 8.66747ZM187.782 9.17125H187.561V8.19518C187.624 8.19518 187.782 8.16369 187.939 8.16369C188.128 8.16369 188.191 8.19518 188.286 8.22667C188.349 8.28964 188.38 8.32112 188.38 8.44707C188.38 8.57301 188.317 8.66747 188.16 8.66747C188.254 8.69896 188.286 8.76192 188.349 8.88787C188.38 9.04529 188.411 9.10827 188.411 9.10827H188.191C188.16 9.07678 188.128 8.98232 188.128 8.88787C188.097 8.79341 188.065 8.73044 187.908 8.73044H187.782V9.17125ZM187.782 8.63598H187.876C188.002 8.63598 188.097 8.57301 188.097 8.51004C188.097 8.44707 188.034 8.35261 187.876 8.35261C187.813 8.35261 187.782 8.35261 187.75 8.35261L187.782 8.63598Z" fill="#14377D"/>
<path d="M29.5653 0.858933C28.3688 0.0088142 22.1976 -1.09319 19.3324 2.43323C14.2316 8.82486 20.9696 16.8223 20.9696 16.8223L29.5653 0.858933Z" fill="#15BEF0"/>
<path d="M16.7505 12.5088C15.2392 9.67505 13.2241 5.55041 12.9722 5.07812C10.5478 0.827529 7.30472 0.386719 5.38408 0.386719H0C0 0.386719 11.7127 22.8047 11.8702 23.088C12.5943 24.253 13.6649 24.7253 14.7669 24.7253C15.9004 24.7253 16.9079 24.316 17.6636 23.088L21.0011 16.7909C21.0011 16.8223 19.3008 17.2946 16.7505 12.5088Z" fill="#14377D"/>
</svg>
