<svg width="354" height="79" viewBox="0 0 354 79" fill="none" xmlns="http://www.w3.org/2000/svg">
<path d="M157.434 2.83705V1.90527H171.87L174.936 26.2586H175.915L178.981 1.90527H193.417V2.83705L182.856 53.4919V76.871H168.037V53.4919L157.434 2.83705Z" fill="#EB5F59"/>
<path d="M17.6728 1.69434V32.6124H24.103V1.69434H39.6035V76.7024H24.1456V44.8526H17.6728V76.7024H2.21484V1.69434H17.6728Z" fill="#51A4F1"/>
<path d="M137.378 1.69434H123.41V76.7025H137.548V55.2292C142.914 54.2551 158.797 51.3327 158.797 29.9865V25.1582C158.797 7.66619 146.831 1.69434 137.378 1.69434ZM137.122 37.6525V20.4146C141.508 20.4146 145.043 22.1088 145.043 29.0124C145.043 35.916 140.188 37.6525 137.122 37.6525Z" fill="#DB894E"/>
<path d="M99.1785 1.69434H85.2109V76.7024H99.3914V55.2292C104.757 54.255 120.641 51.3327 120.641 29.9865V25.1582C120.641 7.66619 108.675 1.69434 99.1785 1.69434ZM98.9655 37.6525V20.4146C103.352 20.4146 106.886 22.1087 106.886 29.0123C106.886 35.916 102.032 37.6525 98.9655 37.6525Z" fill="#DB894E"/>
<path d="M74.4797 1.69434H50.6753L42.4141 75.7706V76.7024H56.5519L58.1701 58.8716H67.0701L68.6883 76.7024H82.8262V75.7706L74.4797 1.69434ZM62.5988 44.429C59.107 44.429 56.2964 41.6337 56.2964 38.2031C56.2964 34.7724 59.107 31.9771 62.5988 31.9771C66.0907 31.9771 68.9013 34.7724 68.9013 38.2031C68.9013 41.6337 66.0481 44.429 62.5988 44.429Z" fill="#FF7861"/>
<path d="M326.066 1.69434H351.787V24.1841H340.332V38.6266H349.87V50.8245H340.332V76.7872H326.023V1.69434H326.066Z" fill="#EB5F59"/>
<path d="M346.037 76.6597H346.463V73.822H347.783V73.3984H344.717V73.822H346.037V76.6597Z" fill="#FEFCF8"/>
<path d="M348.168 76.6596H348.593V73.9913L349.743 76.6596H350.212L351.361 73.9913V76.6596H351.787V73.3984H351.106L349.956 76.1513L348.806 73.3984H348.125V76.6596H348.168Z" fill="#FEFCF8"/>
<path d="M311.502 1.69434V52.7727H323.425V76.7448H297.236V1.69434H311.502Z" fill="#DB894E"/>
<path d="M274.538 0.761719C262.146 0.761719 254.992 10.6301 254.992 36.4234V42.0564C254.992 67.8497 262.146 77.7181 274.538 77.7181C286.93 77.7181 294.084 67.8497 294.084 42.0564V36.4234C294.084 10.6301 286.93 0.761719 274.538 0.761719ZM274.538 47.0965C270.109 47.0965 266.575 43.5811 266.575 39.2187C266.575 34.8563 270.152 31.341 274.538 31.341C278.967 31.341 282.544 34.8563 282.544 39.2187C282.544 43.5811 278.967 47.0965 274.538 47.0965Z" fill="#FF7861"/>
<path d="M219.732 1.69434L221.648 32.316H222.585L225.438 1.69434H234.977L237.83 32.316H238.767L240.683 1.69434H252.607V2.62612L248.306 76.7448H233.529L230.676 52.7727H229.739L226.886 76.7448H212.11L207.809 2.66847V1.69434H219.732Z" fill="#51A4F1"/>
</svg>
