<svg width="151" height="90" viewBox="0 0 151 90" fill="none" xmlns="http://www.w3.org/2000/svg">
<g clip-path="url(#clip0_2977_6256)">
<path d="M93.0483 61.7121C110.375 61.7121 124.421 47.9013 124.421 30.8648C124.421 13.8284 110.375 0.0175781 93.0483 0.0175781C75.7209 0.0175781 61.6748 13.8284 61.6748 30.8648C61.6748 47.9013 75.7209 61.7121 93.0483 61.7121Z" fill="#231815"/>
<path d="M93.0486 55.8796C107.051 55.8796 118.403 44.7207 118.403 30.9554C118.403 17.1902 107.051 6.03125 93.0486 6.03125C79.0452 6.03125 67.6934 17.1902 67.6934 30.9554C67.6934 44.7207 79.0452 55.8796 93.0486 55.8796Z" fill="white"/>
<path d="M147.642 51.6761V33.2783C147.642 29.5877 144.632 26.6011 140.925 26.6011H131.3C128.447 26.6011 126.015 28.3659 125.039 30.8548C124.062 28.3659 121.624 26.6011 118.777 26.6011H112.06C109.466 17.641 102.577 12.0498 93.3462 12.0498C93.2858 12.0498 93.22 12.0498 93.159 12.0498C86.9733 12.1001 81.5668 14.765 77.9402 19.5617C76.4181 21.5729 75.2242 23.9412 74.39 26.6011H66.0141C63.1616 26.6011 60.7288 28.3659 59.7526 30.8548C58.7764 28.3659 56.3386 26.6011 53.491 26.6011H43.8661C42.9102 26.6011 42.0048 26.8072 41.1855 27.1642C40.3611 26.8072 39.4558 26.6011 38.5049 26.6011H28.8799C26.0273 26.6011 23.5945 28.3659 22.6184 30.8548C21.6423 28.3659 19.2044 26.6011 16.3569 26.6011H6.71675C3.00432 26.6011 0 29.5928 0 33.2783V53.7275C0 58.3132 1.34537 62.3808 3.69724 65.5888C2.87282 66.0262 2.13944 66.6296 1.55274 67.3787C0.278178 69.0027 -0.166907 71.1197 0.338872 73.1158C2.97398 83.5041 11.5065 89.9599 22.6083 89.9599C34.6964 89.9599 43.7043 82.091 45.0294 70.8887C48.0995 72.9801 51.9232 74.1669 56.2577 74.1669C60.5922 74.1669 64.5322 72.8948 67.7943 70.5065C76.5899 75.0367 86.0277 73.2011 92.1073 70.5065C100.215 74.0158 107.296 73.6538 112.627 72.2004C115.287 73.4926 118.307 74.1669 121.544 74.1669C125.458 74.1669 129.054 73.1306 132.114 71.1701C134.431 72.4724 137.506 73.3825 141.582 73.3825H144.284C147.995 73.3825 151 70.3903 151 66.705V57.4634C151 54.9896 149.65 52.8326 147.642 51.6761Z" fill="#231815"/>
<path d="M49.1662 87.1187V80.4412C49.1662 79.5164 49.672 78.9932 50.5571 78.9932H54.7196C55.4682 78.9932 55.9487 79.3908 55.9487 80.0947C55.9487 80.7985 55.4581 81.1955 54.7196 81.1955H51.9429V82.9955H54.4364C55.1293 82.9955 55.5794 83.3729 55.5794 84.0318C55.5794 84.69 55.1445 85.0675 54.4364 85.0675H51.9429V87.114C51.9429 88.0388 51.4371 88.562 50.552 88.562C49.6669 88.562 49.1611 88.0388 49.1611 87.114L49.1662 87.1187Z" fill="#231815"/>
<path d="M62.959 83.7002C62.959 80.6933 64.8 78.8281 67.7283 78.8281C70.657 78.8281 72.4979 80.6933 72.4979 83.7002C72.4979 86.7065 70.657 88.5622 67.7283 88.5622C64.8 88.5622 62.959 86.7065 62.959 83.7002ZM69.6604 83.7002C69.6604 82.0708 68.8866 81.0351 67.7236 81.0351C66.5601 81.0351 65.7913 82.0708 65.7913 83.7002C65.7913 85.3289 66.5601 86.3599 67.7236 86.3599C68.8866 86.3599 69.6604 85.3242 69.6604 83.7002Z" fill="#231815"/>
<path d="M79.7363 83.7002C79.7363 80.6933 81.5772 78.8281 84.5059 78.8281C87.434 78.8281 89.2748 80.6933 89.2748 83.7002C89.2748 86.7065 87.434 88.5622 84.5059 88.5622C81.5772 88.5622 79.7363 86.7065 79.7363 83.7002ZM86.4374 83.7002C86.4374 82.0708 85.6636 81.0351 84.5059 81.0351C83.3476 81.0351 82.5684 82.0708 82.5684 83.7002C82.5684 85.3289 83.3375 86.3599 84.5059 86.3599C85.6736 86.3599 86.4374 85.3242 86.4374 83.7002Z" fill="#231815"/>
<path d="M96.7402 86.9528V80.4412C96.7402 79.5164 97.2463 78.9932 98.1314 78.9932H100.786C103.659 78.9932 105.344 80.6172 105.344 83.6295C105.344 86.6411 103.649 88.4009 100.786 88.4009H98.1314C97.2463 88.4009 96.7402 87.8783 96.7402 86.9528ZM100.392 86.2039C101.783 86.2039 102.511 85.3637 102.511 83.6295C102.511 82.0458 101.723 81.1908 100.392 81.1908H99.522V86.2039H100.392Z" fill="#231815"/>
<path d="M112.86 86.8825C112.764 86.6669 112.713 86.4452 112.713 86.2289C112.713 85.5654 113.219 85.108 113.907 85.108C114.433 85.108 114.787 85.2685 115.161 85.7917C115.49 86.2545 116.041 86.4452 116.663 86.4452C117.498 86.4452 118.009 86.1087 118.009 85.6406C118.009 85.1731 117.64 85.0072 116.577 84.8212L115.626 84.6506C113.745 84.3181 112.713 83.3731 112.713 81.9103C112.713 80.0196 114.352 78.8281 116.603 78.8281C118.479 78.8281 119.824 79.4863 120.315 80.6584C120.396 80.8491 120.431 81.0251 120.431 81.236C120.431 81.8599 119.971 82.2871 119.278 82.2925C118.686 82.2925 118.312 82.091 117.978 81.5879C117.67 81.1204 117.229 80.9445 116.633 80.9445C115.859 80.9445 115.464 81.2816 115.464 81.7088C115.464 82.136 115.869 82.3321 116.815 82.5033L117.766 82.6739C119.799 83.0413 120.755 83.8661 120.755 85.3948C120.755 87.3304 119.233 88.5622 116.623 88.5622C114.493 88.5622 113.259 87.7979 112.85 86.8825H112.86Z" fill="#231815"/>
<path d="M129.439 83.2316V80.3603H128.771C128.311 80.3603 128.013 80.1192 128.013 79.6766C128.013 79.2346 128.306 78.9928 128.771 78.9928H131.846C132.312 78.9928 132.605 79.2346 132.605 79.6766C132.605 80.1192 132.302 80.3603 131.846 80.3603H131.179V83.2316C131.179 83.8199 130.87 84.147 130.314 84.147C129.758 84.147 129.444 83.8199 129.444 83.2316H129.439ZM133.065 83.3424V80.044C133.065 79.2998 133.465 78.8975 134.193 78.8975C134.805 78.8975 135.124 79.1386 135.367 79.7827L136.09 81.5625H136.115L136.838 79.7827C137.081 79.1386 137.405 78.8975 138.012 78.8975C138.74 78.8975 139.14 79.2998 139.14 80.044V83.3424C139.14 83.8548 138.867 84.1416 138.386 84.1416C137.906 84.1416 137.632 83.8548 137.632 83.3424V81.4114H137.597L136.677 83.6238C136.565 83.8951 136.388 84.0261 136.1 84.0261C135.812 84.0261 135.614 83.8951 135.508 83.6238L134.588 81.4114H134.557V83.3424C134.557 83.8548 134.284 84.1416 133.804 84.1416C133.323 84.1416 133.06 83.8548 133.06 83.3424H133.065Z" fill="#231815"/>
<path d="M38.4947 33.2783V68.0126C38.4947 77.2537 31.9702 83.2824 22.6082 83.2824C14.5005 83.2824 8.69931 78.7622 6.85322 71.487H16.7412C17.8589 73.3871 19.9731 74.5692 22.4109 74.5692C26.1689 74.5692 28.8697 72.0149 28.8697 67.9522V61.9233C26.4319 64.8094 23.0685 66.3782 19.1133 66.3782C11.6631 66.3782 6.72168 61.33 6.72168 53.7275V33.2783H16.3466V50.8414C16.3466 54.6426 18.7187 57.0662 22.3451 57.0662C26.2346 57.0662 28.8697 54.5773 28.8697 50.7107V33.2783H38.4947Z" fill="white"/>
<path d="M143.626 57.4631C141.911 57.4631 140.925 56.4776 140.925 54.7781V33.2831H131.3V51.897C131.3 55.6982 128.665 58.2525 124.775 58.2525C121.149 58.2525 118.777 55.7636 118.777 52.0277V33.2831H109.152V54.9089C109.152 55.7183 109.218 56.4977 109.329 57.2469C102.021 58.5793 98.7939 55.7837 98.7939 55.7837C103.755 49.8456 106.527 42.3487 106.466 34.7513C106.386 24.5946 101.125 18.6715 93.215 18.7369C84.9757 18.8022 79.5592 25.4695 79.6552 37.1346C79.7156 44.4605 81.5819 50.9316 84.9153 55.9296C84.9153 55.9296 79.888 59.9923 75.6392 54.7831V33.2881H66.0142V51.9021C66.0142 55.7033 63.3792 58.2575 59.4897 58.2575C55.8633 58.2575 53.4912 55.7686 53.4912 52.0328V33.2881H43.8662V54.9138C43.8662 62.5164 48.8128 67.4992 56.2578 67.4992C60.739 67.4992 64.4311 65.5332 66.9398 61.8626C78.2391 71.8534 92.011 63.0242 92.011 63.0242C101.135 68.0573 108.747 66.7902 113.487 64.8896C115.576 66.5639 118.327 67.4992 121.549 67.4992C126.03 67.4992 129.722 65.5332 132.231 61.8626C133.682 65.0756 136.843 66.7148 141.593 66.7148H144.293V57.4731H143.636L143.626 57.4631Z" fill="white"/>
<path d="M92.8305 51.4848C88.5159 45.4159 88.283 36.6922 91.0702 30.206C91.5507 29.1602 92.0668 28.1445 92.8305 27.1641C93.5942 28.1445 94.1096 29.1551 94.5901 30.206C97.3773 36.6922 97.1498 45.4159 92.8305 51.4848Z" fill="#382F2D"/>
</g>
<defs>
<clipPath id="clip0_2977_6256">
<rect width="151" height="90" fill="white"/>
</clipPath>
</defs>
</svg>
