<svg width="584" height="349" viewBox="0 0 584 349" fill="none" xmlns="http://www.w3.org/2000/svg">
<g clip-path="url(#clip0_3366_45)">
<path d="M570.999 200.438V129.055C570.999 114.743 559.367 103.137 545.013 103.137H507.789C496.767 103.137 487.343 109.984 483.566 119.648C482.903 117.952 482.067 116.352 481.081 114.849C478.51 50.9943 425.221 0 359.846 0C294.47 0 244.553 47.8323 239.005 108.859C235.495 111.679 232.731 115.389 231.067 119.648C227.289 109.988 217.873 103.141 206.847 103.141H169.623C165.928 103.141 162.431 103.931 159.248 105.32C156.066 103.935 152.569 103.141 148.874 103.141H111.653C100.632 103.141 91.2071 109.988 87.4339 119.652C83.6561 109.988 74.2318 103.141 63.2104 103.141H25.986C11.6326 103.141 0 114.747 0 129.059V208.398C0 226.187 5.20509 241.977 14.3022 254.429C11.116 256.116 8.27687 258.472 5.99769 261.382C1.07651 267.687 -0.662467 275.903 1.29733 283.651C11.4867 323.959 44.4918 349 87.4256 349C134.165 349 169.008 318.477 174.13 274.998C186.012 283.116 200.791 287.713 217.549 287.713C234.308 287.713 249.549 282.781 262.175 273.508C296.182 291.076 332.688 283.953 356.198 273.511C387.547 287.131 414.937 285.727 435.564 280.087C445.848 285.106 457.536 287.71 470.056 287.71C485.19 287.71 499.094 283.686 510.947 276.072C519.906 281.122 531.807 284.657 547.564 284.657H558.014C572.368 284.657 584 273.052 584 258.739V222.887C584 213.291 578.767 204.918 570.999 200.438ZM148.874 263.829C148.874 299.685 123.633 323.078 87.4301 323.078C56.0692 323.078 33.632 305.534 26.4987 277.307H64.7403C69.074 284.681 77.2329 289.259 86.6648 289.259C101.2 289.259 111.649 279.34 111.649 263.577V240.18C102.217 251.369 89.2162 257.473 73.9163 257.473C45.1069 257.473 25.986 237.895 25.986 208.398V129.059H63.2104V197.209C63.2104 211.958 72.3863 221.365 86.4085 221.365C101.452 221.365 111.649 211.702 111.649 196.702V129.063H148.874V263.836V263.829ZM359.846 23.3262C408.155 23.3262 448.297 57.7865 456.401 103.141H433.376C423.348 68.3661 396.699 46.6799 360.993 46.6799C360.757 46.6799 360.512 46.6799 360.272 46.6799C336.352 46.8765 315.449 57.2241 301.411 75.819C295.512 83.6333 290.914 92.8173 287.676 103.133H263.287C271.391 57.7786 311.533 23.3183 359.842 23.3183L359.846 23.3262ZM547.561 258.743C529.2 258.743 516.969 252.388 511.357 239.924C501.673 254.165 487.39 261.791 470.056 261.791C457.588 261.791 446.94 258.158 438.868 251.66C420.544 259.05 391.104 263.959 355.816 244.427C355.816 244.427 302.558 278.695 258.863 239.924C249.178 254.165 234.895 261.791 217.561 261.791C188.752 261.791 169.631 242.465 169.631 212.968V129.055H206.855V201.779C206.855 216.272 216.031 225.939 230.054 225.939C245.097 225.939 255.294 216.02 255.294 201.271V129.055H292.519V212.461C308.946 232.668 328.395 216.901 328.395 216.901C326.951 214.73 325.583 212.484 324.282 210.172C313.97 191.84 308.256 169.214 308.051 143.972C307.68 98.7124 328.627 72.8575 360.496 72.5979C391.088 72.3501 411.42 95.3263 411.739 134.738C411.972 163.13 402.038 191.128 384.183 213.735C383.489 214.616 382.784 215.489 382.066 216.354C382.066 216.354 394.534 227.189 422.752 222.045C422.772 222.045 422.795 222.038 422.815 222.033V222.01C422.394 219.111 422.133 216.111 422.133 212.972V129.059H459.358V201.783C459.358 216.275 468.533 225.943 482.556 225.943C497.599 225.943 507.796 216.024 507.796 201.275V129.059H545.021V212.464C545.021 219.076 548.846 222.89 555.47 222.89H558.022V258.743H547.561Z" fill="white"/>
<path d="M211.635 306.43H195.527C192.104 306.43 190.152 308.451 190.152 312.046V337.948C190.152 341.538 192.104 343.564 195.527 343.564C198.95 343.564 200.906 341.543 200.906 337.948V330.003H210.542C213.283 330.003 214.955 328.537 214.955 325.98C214.955 323.424 213.232 321.956 210.542 321.956H200.906V314.976H211.635C214.474 314.976 216.379 313.43 216.379 310.7C216.379 307.971 214.526 306.43 211.635 306.43Z" fill="white"/>
<path d="M261.928 305.797C250.614 305.797 243.488 313.03 243.488 324.694C243.488 336.359 250.59 343.565 261.928 343.565C273.264 343.565 280.366 336.356 280.366 324.694C280.366 313.033 273.24 305.797 261.928 305.797ZM261.928 335.014C257.413 335.014 254.447 330.991 254.447 324.694C254.447 318.398 257.44 314.347 261.928 314.347C266.414 314.347 269.412 318.371 269.412 324.694C269.412 331.019 266.446 335.014 261.928 335.014Z" fill="white"/>
<path d="M326.805 305.797C315.492 305.797 308.366 313.03 308.366 324.694C308.366 336.359 315.468 343.565 326.805 343.565C338.142 343.565 345.244 336.356 345.244 324.694C345.244 313.033 338.118 305.797 326.805 305.797ZM326.805 335.014C322.29 335.014 319.32 330.991 319.32 324.694C319.32 318.398 322.314 314.347 326.805 314.347C331.296 314.347 334.285 318.371 334.285 324.694C334.285 331.019 331.32 335.014 326.805 335.014Z" fill="white"/>
<path d="M389.782 306.43H379.51C376.087 306.43 374.136 308.451 374.136 312.046V337.318C374.136 340.909 376.087 342.935 379.51 342.935H389.782C400.867 342.935 407.409 336.103 407.409 324.418C407.409 312.734 400.891 306.43 389.782 306.43ZM388.264 334.408H384.889V314.956H388.264C393.414 314.956 396.458 318.271 396.458 324.418C396.458 331.148 393.643 334.408 388.264 334.408Z" fill="white"/>
<path d="M455.474 320.723L451.795 320.066C448.143 319.409 446.57 318.622 446.57 316.979C446.57 315.334 448.092 314.017 451.085 314.017C453.392 314.017 455.091 314.701 456.286 316.518C457.579 318.465 459.026 319.252 461.31 319.252C463.999 319.224 465.773 317.58 465.773 315.153C465.773 314.319 465.619 313.635 465.316 312.904C463.415 308.349 458.214 305.797 450.959 305.797C442.259 305.797 435.919 310.426 435.919 317.761C435.919 323.428 439.901 327.093 447.181 328.384L450.856 329.04C454.965 329.776 456.385 330.508 456.385 332.226C456.385 333.944 454.405 335.337 451.183 335.337C448.774 335.337 446.645 334.605 445.375 332.808C443.928 330.783 442.56 330.149 440.532 330.149C437.867 330.149 435.915 331.92 435.915 334.499C435.915 335.333 436.093 336.195 436.475 337.032C438.049 340.599 442.815 343.557 451.057 343.557C461.152 343.557 467.035 338.778 467.035 331.263C467.035 325.343 463.333 322.13 455.47 320.714L455.474 320.723Z" fill="white"/>
<path d="M359.006 105.336C356.052 109.139 354.049 113.064 352.2 117.131C341.427 142.297 342.31 176.148 359.006 199.699C375.705 176.14 376.581 142.29 365.811 117.131C363.962 113.064 361.959 109.139 359.006 105.336Z" fill="white"/>
</g>
<defs>
<clipPath id="clip0_3366_45">
<rect width="584" height="349" fill="white"/>
</clipPath>
</defs>
</svg>
