<svg width="685" height="54" viewBox="0 0 685 54" fill="none" xmlns="http://www.w3.org/2000/svg">
<path d="M32.5503 53.0609C25.9703 53.0609 20.2303 51.9875 15.3303 49.8409C10.4303 47.6475 6.65027 44.5675 3.99027 40.6009C1.33027 36.6342 0.000273548 32.0142 0.000273548 26.7409C0.000273548 21.5609 1.40027 16.9409 4.20027 12.8809C7.00027 8.82086 10.8969 5.67086 15.8903 3.43086C20.9303 1.14419 26.6703 0.000857472 33.1103 0.000857472C38.4769 0.000857472 43.3069 0.747524 47.6003 2.24086C51.8936 3.73419 55.4636 5.88086 58.3103 8.68086C61.2036 11.4809 63.1869 14.7942 64.2603 18.6209L49.6303 21.2109C48.6969 17.8042 46.8069 15.2142 43.9603 13.4409C41.1136 11.6209 37.4503 10.7109 32.9703 10.7109C27.3703 10.7109 22.9369 12.1342 19.6703 14.9809C16.4503 17.8275 14.8403 21.6775 14.8403 26.5309C14.8403 29.7042 15.5869 32.4809 17.0803 34.8609C18.5736 37.2409 20.6969 39.0842 23.4503 40.3909C26.2036 41.6975 29.4236 42.3509 33.1103 42.3509C37.4969 42.3509 41.0903 41.5109 43.8903 39.8309C46.7369 38.1042 48.6969 35.5842 49.7703 32.2709L64.1903 35.3509C62.1369 40.9975 58.3569 45.3609 52.8503 48.4409C47.3903 51.5209 40.6236 53.0609 32.5503 53.0609ZM69.0777 51.3809V1.68086H102.888C109.374 1.68086 114.438 3.15086 118.078 6.09086C121.764 9.03086 123.608 13.0675 123.608 18.2009C123.608 21.7009 122.744 24.7809 121.018 27.4409C119.291 30.0542 116.841 32.0842 113.668 33.5309C110.494 34.9309 106.784 35.6309 102.538 35.6309H83.2177V51.3809H69.0777ZM99.3877 26.1809C102.374 26.1809 104.684 25.5275 106.318 24.2209C107.951 22.8675 108.768 20.9775 108.768 18.5509C108.768 16.1709 107.951 14.3509 106.318 13.0909C104.731 11.7842 102.444 11.1309 99.4577 11.1309H83.2177V26.1809H99.3877ZM153.919 53.0609C147.992 53.0609 142.812 51.9642 138.379 49.7709C133.992 47.5309 130.609 44.4509 128.229 40.5309C125.895 36.5642 124.729 32.0842 124.729 27.0909C124.729 21.9109 126.059 17.2675 128.719 13.1609C131.425 9.05419 135.275 5.83419 140.269 3.50086C145.262 1.16752 151.095 0.000857472 157.769 0.000857472C162.949 0.000857472 167.662 0.654191 171.909 1.96086C176.155 3.26752 179.679 5.15752 182.479 7.63086C185.279 10.0575 187.192 12.9275 188.219 16.2409L172.959 18.7609C171.979 16.1942 170.159 14.1409 167.499 12.6009C164.839 11.0142 161.455 10.2209 157.349 10.2209C151.749 10.2209 147.362 11.7375 144.189 14.7709C141.062 17.7575 139.499 21.8175 139.499 26.9509C139.499 30.1709 140.199 33.0175 141.599 35.4909C143.045 37.9175 145.122 39.8075 147.829 41.1609C150.535 42.5142 153.755 43.1909 157.489 43.1909C160.942 43.1909 163.952 42.7009 166.519 41.7209C169.132 40.7409 171.162 39.4575 172.609 37.8709C174.055 36.2375 174.849 34.4875 174.989 32.6209V32.4109H156.229V23.6609H188.149V51.3809H177.369L176.739 42.8409C174.965 45.7809 172.165 48.2309 168.339 50.1909C164.559 52.1042 159.752 53.0609 153.919 53.0609ZM220.043 51.3809V1.68086H270.233V11.8309H234.183V22.0509H269.043V31.9909H234.183V51.3809H220.043ZM288.926 52.7109C283.373 52.7109 279.056 51.7542 275.976 49.8409C272.943 47.9275 271.426 45.2209 271.426 41.7209C271.426 38.2209 272.896 35.5609 275.836 33.7409C277.236 32.8542 278.986 32.1542 281.086 31.6409C283.233 31.1275 286.056 30.7775 289.556 30.5909L307.896 29.5409V28.7009C307.896 26.7875 307.01 25.3409 305.236 24.3609C303.51 23.3342 301.06 22.8209 297.886 22.8209C294.713 22.8209 292.146 23.3109 290.186 24.2909C288.273 25.2242 287.13 26.5775 286.756 28.3509H272.406C272.873 25.6909 274.226 23.3575 276.466 21.3509C278.706 19.3442 281.67 17.8042 285.356 16.7309C289.043 15.6109 293.22 15.0509 297.886 15.0509C305.96 15.0509 311.91 16.3575 315.736 18.9709C319.563 21.5842 321.476 25.5275 321.476 30.8009V40.4609C321.476 44.9409 321.686 48.5809 322.106 51.3809H308.666C308.433 49.9809 308.27 47.8342 308.176 44.9409C306.776 47.4142 304.42 49.3275 301.106 50.6809C297.793 52.0342 293.733 52.7109 288.926 52.7109ZM285.356 40.8109C285.356 42.2575 286.103 43.3542 287.596 44.1009C289.09 44.8475 291.213 45.2209 293.966 45.2209C298.166 45.2209 301.55 44.4509 304.116 42.9109C306.73 41.3242 308.036 39.2009 308.036 36.5409V35.3509L293.966 36.3309C290.793 36.5642 288.553 37.0309 287.246 37.7309C285.986 38.3842 285.356 39.4109 285.356 40.8109ZM351.435 52.7109C345.229 52.7109 339.909 52.0575 335.475 50.7509C331.042 49.4442 327.402 47.4609 324.555 44.8009L331.065 38.6409C333.352 40.6942 336.222 42.2342 339.675 43.2609C343.129 44.2409 347.492 44.7309 352.765 44.7309C355.892 44.7309 358.132 44.4742 359.485 43.9609C360.839 43.4475 361.515 42.6075 361.515 41.4409C361.515 40.5542 361.189 39.9242 360.535 39.5509C359.882 39.1775 358.645 38.8975 356.825 38.7109L341.635 37.3809C336.549 36.8675 332.792 35.7475 330.365 34.0209C327.985 32.2942 326.795 29.8209 326.795 26.6009C326.795 22.7742 328.685 19.9042 332.465 17.9909C336.292 16.0309 341.962 15.0509 349.475 15.0509C359.835 15.0509 367.745 17.0575 373.205 21.0709L367.745 27.5109C365.365 25.8775 362.635 24.7109 359.555 24.0109C356.522 23.2642 352.742 22.8909 348.215 22.8909C345.042 22.8909 342.732 23.1242 341.285 23.5909C339.885 24.0575 339.185 24.8275 339.185 25.9009C339.185 26.7409 339.559 27.3709 340.305 27.7909C341.052 28.1642 342.312 28.4442 344.085 28.6309L359.555 29.9609C364.689 30.4275 368.375 31.4775 370.615 33.1109C372.855 34.6975 373.975 37.0775 373.975 40.2509C373.975 44.3109 372.109 47.4142 368.375 49.5609C364.642 51.6609 358.995 52.7109 351.435 52.7109ZM372.845 16.3809H383.135V8.19086L396.575 3.43086V16.3809H412.395V24.8509H396.575V35.0009C396.575 37.5209 397.275 39.3642 398.675 40.5309C400.075 41.6509 402.245 42.2109 405.185 42.2109C407.752 42.2109 410.155 41.9309 412.395 41.3709V50.8209C409.969 51.8475 406.422 52.3609 401.755 52.3609C395.595 52.3609 390.952 51.1709 387.825 48.7909C384.699 46.3642 383.135 42.6542 383.135 37.6609V24.8509H372.845V16.3809ZM437.222 1.68086H492.732V12.6709H472.082V51.3809H457.942V12.6709H437.222V1.68086ZM502.614 26.7409C503.594 23.2409 505.484 20.4642 508.284 18.4109C511.131 16.3575 514.561 15.3309 518.574 15.3309C520.441 15.3309 521.957 15.4475 523.124 15.6809V27.1609C521.164 26.7875 519.297 26.6009 517.524 26.6009C513.324 26.6009 510.104 27.6509 507.864 29.7509C505.437 32.0375 504.224 35.4675 504.224 40.0409V51.3809H490.784V16.3809H502.614V26.7409ZM540.133 52.7109C534.58 52.7109 530.263 51.7542 527.183 49.8409C524.15 47.9275 522.633 45.2209 522.633 41.7209C522.633 38.2209 524.103 35.5609 527.043 33.7409C528.443 32.8542 530.193 32.1542 532.293 31.6409C534.44 31.1275 537.263 30.7775 540.763 30.5909L559.103 29.5409V28.7009C559.103 26.7875 558.217 25.3409 556.443 24.3609C554.717 23.3342 552.267 22.8209 549.093 22.8209C545.92 22.8209 543.353 23.3109 541.393 24.2909C539.48 25.2242 538.337 26.5775 537.963 28.3509H523.613C524.08 25.6909 525.433 23.3575 527.673 21.3509C529.913 19.3442 532.877 17.8042 536.563 16.7309C540.25 15.6109 544.427 15.0509 549.093 15.0509C557.167 15.0509 563.117 16.3575 566.943 18.9709C570.77 21.5842 572.683 25.5275 572.683 30.8009V40.4609C572.683 44.9409 572.893 48.5809 573.313 51.3809H559.873C559.64 49.9809 559.477 47.8342 559.383 44.9409C557.983 47.4142 555.627 49.3275 552.313 50.6809C549 52.0342 544.94 52.7109 540.133 52.7109ZM536.563 40.8109C536.563 42.2575 537.31 43.3542 538.803 44.1009C540.297 44.8475 542.42 45.2209 545.173 45.2209C549.373 45.2209 552.757 44.4509 555.323 42.9109C557.937 41.3242 559.243 39.2009 559.243 36.5409V35.3509L545.173 36.3309C542 36.5642 539.76 37.0309 538.453 37.7309C537.193 38.3842 536.563 39.4109 536.563 40.8109ZM602.922 52.7109C597.462 52.7109 592.702 51.9409 588.642 50.4009C584.629 48.8609 581.526 46.6675 579.332 43.8209C577.139 40.9275 576.042 37.5675 576.042 33.7409C576.042 29.9142 577.116 26.6009 579.262 23.8009C581.456 20.9542 584.582 18.7842 588.642 17.2909C592.702 15.7975 597.509 15.0509 603.062 15.0509C610.156 15.0509 615.942 16.2409 620.422 18.6209C624.949 20.9542 627.796 24.2909 628.962 28.6309L614.752 30.5209C614.052 28.4209 612.652 26.8109 610.552 25.6909C608.499 24.5709 605.862 24.0109 602.642 24.0109C598.722 24.0109 595.642 24.8742 593.402 26.6009C591.162 28.3275 590.042 30.6842 590.042 33.6709C590.042 36.6575 591.186 39.0842 593.472 40.9509C595.806 42.7709 598.862 43.6809 602.642 43.6809C605.956 43.6809 608.639 43.1209 610.692 42.0009C612.746 40.8809 614.122 39.2475 614.822 37.1009L628.962 39.2009C627.842 43.3542 624.949 46.6442 620.282 49.0709C615.616 51.4975 609.829 52.7109 602.922 52.7109ZM633.067 0.630858H646.507V30.9409L666.247 16.3809H684.027L667.227 28.7709L684.727 51.3809H669.327L656.937 35.1409L646.507 42.4209V51.3809H633.067V0.630858Z" fill="#004534"/>
</svg>
