<?xml version="1.0" encoding="UTF-8" standalone="no"?>
<svg id="svg2" xmlns:rdf="http://www.w3.org/1999/02/22-rdf-syntax-ns#" xmlns="http://www.w3.org/2000/svg" xml:space="preserve" height="74.084" width="125.61" version="1.1" xmlns:cc="http://creativecommons.org/ns#" viewBox="0 0 125.60675 74.0835" xmlns:dc="http://purl.org/dc/elements/1.1/"><metadata id="metadata8"><rdf:RDF><cc:Work rdf:about=""><dc:format>image/svg+xml</dc:format><dc:type rdf:resource="http://purl.org/dc/dcmitype/StillImage"/><dc:title/></cc:Work></rdf:RDF></metadata><path id="path64" d="m102.96 59.324c-1.1375 0-1.84-0.45-1.84-1.8838v-10.52c0-1.4338 0.74625-1.8825 1.885-1.8825h6.7175c0.59375 0 1.015 0.11 1.2962 0.39625 0.2225 0.22625 0.3225 0.54375 0.3225 0.935 0 0.38625-0.0987 0.705-0.315 0.93375-0.2575 0.27375-0.68 0.41125-1.3038 0.41125h-5.4125v3.1612h4.6838c0.5825 0 1.025 0.1125 1.2912 0.37 0.23 0.22 0.33375 0.53625 0.33375 0.935 0 0.395-0.10125 0.70875-0.32625 0.93-0.2425 0.24-0.65875 0.37875-1.3088 0.37875h-4.6738v3.1562h5.5638c0.5925 0 1.015 0.11125 1.295 0.3975 0.2225 0.22625 0.32375 0.5425 0.32375 0.93375 0 0.3875-0.1 0.705-0.31625 0.935-0.2575 0.27375-0.68 0.4125-1.3025 0.4125h-6.9138zm-62.111 0c-1.1375 0-1.84-0.45-1.84-1.8838v-10.791c0-0.9625 0.61375-1.6112 1.5962-1.6112 0.98125 0 1.5938 0.64875 1.5938 1.6112v9.995h4.925c0.59375 0 1.015 0.11125 1.295 0.3975 0.2225 0.225 0.32375 0.5425 0.32375 0.93375 0 0.3875-0.09875 0.705-0.31625 0.935-0.2575 0.2725-0.68 0.41375-1.3025 0.41375h-6.275zm45.255-1.4712c0 0.9625-0.61125 1.6112-1.5925 1.6112-0.9825 0-1.5975-0.64875-1.5975-1.6112v-11.204c0-0.9625 0.615-1.6112 1.5975-1.6112 0.98125 0 1.5925 0.64875 1.5925 1.6112v11.204zm-31.943-4.263c0.6275-1.8338 1.2988-3.795 1.7712-5.1812 0.44 1.2988 1.065 3.1388 1.7575 5.1812h-3.5288zm7.7862 3.2362c-0.15625-0.45375-2.9025-8.2912-3.3412-9.55-0.2725-0.785-0.52125-1.2475-0.86125-1.595-0.48375-0.49375-1.1-0.645-1.71-0.645-0.72875 0-1.2825 0.23875-1.7025 0.62875-0.385 0.36-0.64375 0.86875-0.85375 1.46-0.4025 1.1312-3.425 9.3488-3.555 9.7012-0.1525 0.415-0.3075 0.88625-0.3075 1.22 0 0.84875 0.60625 1.3888 1.4775 1.3888 0.7 0 1.1688-0.31125 1.4-0.98875 0.12-0.34625 0.42375-1.23 0.815-2.3675h5.225c0.26125 0.77125 0.52625 1.5525 0.7875 2.3275 0.22125 0.59375 0.615 1.0288 1.4438 1.0288 0.80875 0 1.4925-0.6175 1.4925-1.3888 0-0.35125-0.155-0.76625-0.31-1.22m-28.656-1.044c-0.53 0.56875-1.2888 0.855-2.3525 0.855h-2.44v-8.9138h2.0438c1.1625 0 1.9762 0.16125 2.6238 0.825 0.7275 0.745 1.1438 1.99 1.1438 3.7662 0 1.51-0.3375 2.7362-1.0188 3.4675m2.2638-9.2662c-1.088-1.021-2.412-1.478-4.456-1.478h-3.975c-1.1375 0-1.8162 0.45-1.8162 1.8838v10.519c0 1.4338 0.67875 1.8838 1.8162 1.8838h4.2562c3.7525 0 6.1625-2.335 6.1625-7.025 0-2.6038-0.68625-4.56-1.9888-5.7825m80.631 1.0915h2.695c0.96625 0 1.5488 0.17875 1.935 0.53625 0.3825 0.35375 0.56875 0.835 0.56875 1.5388 0 0.6575-0.19625 1.1675-0.5475 1.525-0.3925 0.40125-0.97125 0.56625-1.7012 0.56625h-2.95v-4.1662zm6.0412 6.2512c1.585-0.7625 2.38-2.3475 2.38-4.18 0-1.57-0.50125-2.695-1.34-3.475-0.89-0.82625-2.16-1.1662-3.695-1.1662h-4.67c-1.2675 0-1.9062 0.57-1.9062 1.885v10.93c0 0.9625 0.615 1.6112 1.5975 1.6112 0.98125 0 1.5925-0.64875 1.5925-1.6112v-3.5125h2.9738l2.365 4.17c0.33625 0.63 0.7375 0.94375 1.5038 0.94375 0.625 0 1.4575-0.37375 1.4575-1.4712 0-0.295-0.12625-0.60375-0.27375-0.8475-0.18375-0.30125-1.24-2.045-1.985-3.2762m-34.022-6.936c0-1.315 0.6375-1.8862 1.905-1.8862h4.6375c1.535 0 2.805 0.34 3.695 1.1675 0.83875 0.78 1.34 1.9525 1.34 3.5212 0 2.575-1.5675 4.6912-4.6912 4.6912h-3.6962v3.4362c0 0.96125-0.6125 1.61-1.5938 1.61-0.98125 0-1.5962-0.64875-1.5962-1.61v-10.93zm3.19 4.9262h3.0262c0.78125 0 1.2338-0.20375 1.5725-0.55125 0.37125-0.38 0.56625-0.93 0.56625-1.5675 0-0.7025-0.18625-1.2325-0.56875-1.5875-0.45875-0.4225-1.0588-0.535-1.935-0.535h-2.6612v4.2412zm-21.416-4.926c0-1.315 0.63875-1.8862 1.9062-1.8862h4.6362c1.535 0 2.805 0.34 3.695 1.1675 0.83875 0.78 1.34 1.9525 1.34 3.5212 0 2.575-1.5675 4.6912-4.6912 4.6912h-3.6962v3.4362c0 0.96125-0.6125 1.61-1.5925 1.61-0.9825 0-1.5975-0.64875-1.5975-1.61v-10.93zm3.19 4.9262h3.0262c0.78125 0 1.2338-0.20375 1.5725-0.55125 0.37125-0.38 0.56625-0.93 0.56625-1.5675 0-0.7025-0.18625-1.2325-0.56875-1.5875-0.45875-0.4225-1.0588-0.535-1.935-0.535h-2.6612v4.2412z" fill="#16253f"/><path id="path68" d="m12.499 73.084c-2.6612 0-4.4388-0.5125-6.0175-1.4112-1.7962-1.0225-3.275-2.5475-4.2412-4.3788-0.96625-1.8325-1.24-3.8012-1.24-6.3275v-47.848c0-2.5275 0.27375-4.4962 1.24-6.3288 0.96625-1.8312 2.445-3.3562 4.2412-4.3788 1.5788-0.8975 3.3562-1.4112 6.0175-1.4112h49.154c2.6612 0 4.44 0.51375 6.0175 1.4112 1.7962 1.0225 3.275 2.5475 4.2412 4.3788 0.9675 1.8325 1.2412 3.8012 1.2412 6.3288v24.15c0 1.06-0.59 1.6112-1.57 1.6112-0.9775 0-1.5062-0.54-1.6475-1.6112-0.975-7.37-3.5725-13.258-8.1612-17.912-5.1975-5.2725-12.554-8.5062-21.282-8.5062-17.59 0-29.606 13.131-29.606 29.608 0 8.3038 3.0525 15.758 8.3325 21.11 4.5038 4.5638 10.489 7.5138 17.864 8.3175 1.45 0.1575 1.9238 0.7225 1.9238 1.665 0 0.44625-0.14125 0.82375-0.415 1.0912-0.29125 0.28375-0.7725 0.4425-1.4388 0.4425h-24.652z" fill="#16253f"/></svg>
