<svg width="465" height="359" viewBox="0 0 465 359" fill="none" xmlns="http://www.w3.org/2000/svg">
<path fill-rule="evenodd" clip-rule="evenodd" d="M419.946 96.2646C444.829 96.2646 465 70.32 465 45.301C465 20.2819 444.829 0 419.946 0C395.063 0 374.892 20.2819 374.892 45.301C374.892 70.32 395.063 96.2646 419.946 96.2646ZM385.024 138.643C385.024 133.01 389.944 128.67 395.523 129.166C403.487 129.874 411.642 130.241 419.945 130.241C428.515 130.241 436.928 129.85 445.134 129.097C450.724 128.584 455.663 132.928 455.663 138.572V216.506V316.992C455.663 323.597 449.032 328.116 442.93 325.67L390.875 304.806C387.342 303.39 385.024 299.952 385.024 296.127V216.506V138.643ZM31.9447 300.889C46.1142 304.032 60.4921 305.603 75.0784 305.603C94.0406 305.603 110.19 302.984 123.526 297.746C136.862 292.509 146.864 285.49 153.532 276.69C160.2 267.89 163.534 258.148 163.534 247.462C163.534 233.425 159.783 222.635 152.282 215.092C144.988 207.549 136.445 202.416 126.651 199.692C117.066 196.969 105.293 194.769 91.3317 193.093C82.3716 192.045 75.8077 190.998 71.6402 189.95C67.4727 188.693 65.389 186.702 65.389 183.979C65.389 178.531 73.0989 175.808 88.5186 175.808C102.792 175.808 116.14 178.466 128.563 183.783C133.666 185.967 139.77 183.869 141.9 178.721L154.015 149.448C155.864 144.979 154.024 139.788 149.558 137.978C142.484 135.111 134.432 132.845 125.401 131.18C113.107 128.666 100.5 127.409 87.581 127.409C69.0355 127.409 53.0948 130.028 39.7588 135.266C26.6311 140.504 16.7333 147.523 10.0653 156.322C3.39728 165.122 0.0632683 175.074 0.0632683 186.179C0.0632683 200.216 3.70984 211.006 11.003 218.549C18.5045 226.092 27.1521 231.225 36.9457 233.949C46.7394 236.463 58.6168 238.558 72.5779 240.234C81.7464 241.282 88.3103 242.329 92.2694 243.377C96.4369 244.424 98.5207 246.31 98.5207 249.034C98.5207 251.757 96.8536 253.853 93.5196 255.319C90.394 256.576 84.7679 257.205 76.6412 257.205C66.4308 257.205 55.9079 255.843 45.0724 253.119C38.3222 251.423 32.1381 249.319 26.5201 246.809C21.325 244.488 14.976 246.555 12.7921 251.833L0.712532 281.021C-1.08711 285.37 0.6017 290.423 4.8815 292.338C12.4117 295.707 21.4327 298.558 31.9447 300.889ZM330.889 138.409C318.387 131.076 304.634 127.409 289.631 127.409C273.246 127.409 260.145 130.901 250.327 137.886C247.417 139.957 242.747 138.037 242.747 134.452C242.747 132.298 241.01 130.552 238.867 130.552H184.837C179.706 130.552 175.545 134.735 175.545 139.895V349.648C175.545 356.253 182.176 360.772 188.278 358.327L240.334 337.462C243.867 336.046 246.185 332.608 246.185 328.784V313.056C246.185 304.78 257.205 299.488 265.025 302.071C272.155 304.426 280.357 305.603 289.631 305.603C304.634 305.603 318.387 302.042 330.889 294.918C343.6 287.585 353.602 277.214 360.895 263.805C368.397 250.186 372.148 234.472 372.148 216.663C372.148 198.854 368.397 183.141 360.895 169.522C353.602 155.903 343.6 145.532 330.889 138.409ZM292.757 241.491C287.547 247.358 280.879 250.291 272.753 250.291C264.626 250.291 257.958 247.358 252.749 241.491C247.539 235.625 244.934 227.349 244.934 216.663C244.934 205.978 247.539 197.702 252.749 191.836C257.958 185.76 264.626 182.722 272.753 182.722C280.879 182.722 287.547 185.76 292.757 191.836C297.966 197.702 300.571 205.978 300.571 216.663C300.571 227.349 297.966 235.625 292.757 241.491Z" fill="black"/>
</svg>
