<svg width="891" height="161" viewBox="0 0 891 161" fill="none" xmlns="http://www.w3.org/2000/svg">
<path d="M164.702 158.713L191.723 120.354C196.548 113.477 199.563 108.896 199.563 102.985V102.263C199.563 97.1946 196.065 94.6626 191.963 94.6626C187.622 94.6626 184.966 97.4383 182.434 102.143L167.234 92.2505C172.302 82.8414 180.865 77.4141 193.169 77.4141C209.331 77.4141 219.343 86.9429 219.343 100.817V101.66C219.343 111.308 214.878 119.755 206.196 131.452L196.787 144.24H218.86V160.402H164.698V158.713H164.702Z" fill="black"/>
<path d="M137.862 52.4321C143.219 78.4537 132.344 105.376 110.375 120.373C129.019 106.206 136.425 80.6387 126.785 58.1651C116.318 33.7627 89.359 21.4004 64.4692 28.4965C62.3503 29.0995 60.2438 29.8471 58.1662 30.7393C55.6838 31.8049 53.3213 33.0399 51.095 34.4277C26.4489 48.7685 13.9089 77.3467 19.5841 104.909C20.4722 109.225 21.8063 113.517 23.6113 117.721C33.4458 140.649 54.6884 155.176 77.8682 157.518C68.2857 157.406 58.7114 155.523 49.5461 151.859C30.0217 144.053 14.702 129.113 6.4164 109.787C-1.87332 90.4608 -2.13766 69.0653 5.66467 49.5409C8.84095 41.594 13.1985 34.3451 18.5557 27.9843C26.358 18.7115 36.2751 11.3264 47.7369 6.4112C58.5834 1.7645 70.0824 -0.362658 81.5402 0.0503819C103.952 2.99536 124.282 17.3402 133.835 39.6196C135.64 43.8285 136.974 48.12 137.862 52.4321Z" fill="black"/>
<path d="M156.427 107.944C153.011 116.486 148.232 124.222 142.322 130.913C134.714 139.525 125.23 146.411 114.359 151.074C104.103 155.473 93.2691 157.612 82.4351 157.484C59.2553 155.142 38.0126 140.616 28.1781 117.688C26.3731 113.479 25.039 109.187 24.151 104.875C18.4758 77.309 31.0157 48.7349 55.6618 34.3942C34.1507 47.7973 25.0142 75.3265 35.3031 99.3241C45.1128 122.198 69.4161 134.49 92.918 130.096C96.6272 129.402 100.316 128.299 103.921 126.75C107.932 125.032 111.612 122.863 114.937 120.335C136.907 105.338 147.782 78.416 142.425 52.3945C141.537 48.0782 140.203 43.7867 138.398 39.582C128.844 17.3026 108.514 2.95767 86.1029 0.0126953C95.0535 0.334867 103.979 2.20594 112.546 5.62591C132.07 13.4324 147.39 28.372 155.675 47.6982C163.965 67.0243 164.229 88.4198 156.427 107.944Z" fill="black"/>
<path d="M225.888 152.902C225.888 155.839 228.06 158.173 231.038 158.173C234.016 158.173 236.069 155.839 236.069 152.939C236.069 150.04 233.938 147.628 230.997 147.628C228.056 147.628 225.888 150.003 225.888 152.898V152.902ZM237.762 152.902C237.762 156.644 234.826 159.581 231.001 159.581C227.176 159.581 224.198 156.644 224.198 152.902C224.198 149.16 227.218 146.302 231.001 146.302C234.784 146.302 237.762 149.238 237.762 152.902ZM229.956 156.363H228.424V149.763C229.027 149.643 229.873 149.561 230.96 149.561C232.207 149.561 232.773 149.763 233.252 150.044C233.616 150.325 233.896 150.849 233.896 151.494C233.896 152.216 233.331 152.782 232.529 153.022V153.1C233.174 153.34 233.537 153.827 233.735 154.711C233.938 155.719 234.058 156.12 234.219 156.359H232.571C232.368 156.12 232.248 155.513 232.046 154.748C231.926 154.026 231.521 153.703 230.679 153.703H229.956V156.359V156.363ZM229.997 152.621H230.724C231.567 152.621 232.253 152.34 232.253 151.655C232.253 151.052 231.811 150.647 230.844 150.647C230.443 150.647 230.158 150.688 229.997 150.73V152.621Z" fill="black"/>
<path d="M286.425 157.458H278.234L277.061 160.29H270.911L282.349 136.38C282.454 136.136 282.659 136.136 282.764 136.38L294.168 160.29H287.67L286.425 157.458ZM280.17 152.895H284.418L282.277 147.917L280.17 152.895Z" fill="black"/>
<path d="M317.523 148.579V160.293H311.616V136.488C311.616 136.284 311.721 136.107 312.103 136.422L326.859 148.584V136.803H332.766V160.647C332.766 160.924 332.661 161.029 332.28 160.713L317.529 148.584L317.523 148.579Z" fill="black"/>
<path d="M340.291 136.796H356.773V142.083H346.58V145.955H355.081V150.966H346.58V155.009H357.254V160.297H340.291V136.801V136.796Z" fill="black"/>
<path d="M372.117 160.568C372.012 160.806 371.807 160.806 371.702 160.568L361.857 136.796H368.456L372.842 147.819L377.886 136.348C377.952 136.177 378.091 136.177 378.162 136.348L383.45 147.819L387.631 136.796H393.92L384.208 160.568C384.103 160.845 383.931 160.845 383.793 160.568L377.919 147.958L372.117 160.568Z" fill="black"/>
<path d="M422.455 160.602C415.857 160.602 410.221 155.624 410.221 148.545C410.221 141.465 415.818 136.521 422.107 136.521C427.184 136.521 430.298 138.661 432.267 141.565L427.532 144.778C426.636 143.395 425.182 141.979 422.212 141.979C418.755 141.979 416.648 144.85 416.648 148.545C416.648 152.239 418.827 155.143 422.416 155.143C425.458 155.143 426.941 153.76 427.947 151.896L432.787 155.005C430.469 158.909 427.223 160.602 422.455 160.602Z" fill="black"/>
<path d="M438.652 136.796H444.941V155.004H454.924V160.291H438.652V136.796Z" fill="black"/>
<path d="M475.25 157.458H467.059L465.887 160.29H459.736L471.174 136.38C471.279 136.136 471.484 136.136 471.589 136.38L482.994 160.29H476.495L475.25 157.458ZM468.995 152.895H473.243L471.102 147.917L468.995 152.895Z" fill="black"/>
<path d="M486.725 156.288L491.288 152.864C492.428 154.28 493.843 155.419 496.194 155.419C498.058 155.419 499.164 154.866 499.164 153.55C499.164 152.549 498.406 152.062 496.852 151.548L494.087 150.613C490.669 149.473 488.246 147.399 488.246 143.528C488.246 138.898 492.079 136.515 496.26 136.515C500.442 136.515 502.892 138.002 504.275 139.623L500.68 143.39C499.712 142.388 498.467 141.697 496.603 141.697C495.082 141.697 494.325 142.388 494.325 143.323C494.325 144.258 494.845 144.673 495.984 145.049L499.092 146.083C503.794 147.637 505.381 149.883 505.381 153.201C505.381 157.521 502.687 160.629 496.465 160.629C491.178 160.629 488.174 158.207 486.72 156.276L486.725 156.288Z" fill="black"/>
<path d="M509.799 156.288L514.362 152.864C515.502 154.28 516.918 155.419 519.268 155.419C521.132 155.419 522.238 154.866 522.238 153.55C522.238 152.549 521.481 152.062 519.926 151.548L517.161 150.613C513.743 149.473 511.32 147.399 511.32 143.528C511.32 138.898 515.153 136.515 519.335 136.515C523.516 136.515 525.966 138.002 527.349 139.623L523.754 143.39C522.786 142.388 521.542 141.697 519.678 141.697C518.157 141.697 517.399 142.388 517.399 143.323C517.399 144.258 517.919 144.673 519.058 145.049L522.166 146.083C526.868 147.637 528.455 149.883 528.455 153.201C528.455 157.521 525.762 160.629 519.539 160.629C514.252 160.629 511.249 158.207 509.794 156.276L509.799 156.288Z" fill="black"/>
<path d="M545.456 148.545C545.456 141.46 551.297 136.521 558.066 136.521C564.836 136.521 570.677 141.46 570.677 148.545C570.677 155.63 564.836 160.602 558.066 160.602C551.297 160.602 545.456 155.624 545.456 148.545ZM564.25 148.545C564.25 144.85 562.004 141.979 558.066 141.979C554.128 141.979 551.883 144.85 551.883 148.545C551.883 152.239 554.128 155.143 558.066 155.143C562.004 155.143 564.25 152.239 564.25 148.545Z" fill="black"/>
<path d="M577.065 136.796H593.028V142.083H583.354V146.851H591.888V152.139H583.354V160.291H577.065V136.796Z" fill="black"/>
<path d="M609.508 156.288L614.071 152.864C615.21 154.28 616.626 155.419 618.977 155.419C620.846 155.419 621.947 154.866 621.947 153.55C621.947 152.549 621.184 152.062 619.63 151.548L616.864 150.613C613.441 149.473 611.024 147.399 611.024 143.528C611.024 138.898 614.856 136.515 619.038 136.515C623.219 136.515 625.669 138.002 627.052 139.623L623.457 143.39C622.489 142.388 621.245 141.697 619.381 141.697C617.86 141.697 617.102 142.388 617.102 143.323C617.102 144.258 617.622 144.673 618.761 145.049L621.87 146.083C626.565 147.637 628.158 149.883 628.158 153.201C628.158 157.521 625.465 160.629 619.242 160.629C613.955 160.629 610.952 158.207 609.497 156.276L609.508 156.288Z" fill="black"/>
<path d="M640.786 160.291H634.497V136.796H643.999C649.978 136.796 653.291 140.424 653.291 145.23C653.291 150.037 649.972 153.554 643.999 153.554H640.786V160.291ZM643.689 148.3C645.83 148.3 646.969 147.161 646.969 145.225C646.969 143.289 645.83 142.117 643.689 142.117H640.786V148.3H643.689Z" fill="black"/>
<path d="M658.682 148.545C658.682 141.46 664.522 136.521 671.292 136.521C678.062 136.521 683.902 141.46 683.902 148.545C683.902 155.63 678.062 160.602 671.292 160.602C664.522 160.602 658.682 155.624 658.682 148.545ZM677.476 148.545C677.476 144.85 675.23 141.979 671.292 141.979C667.354 141.979 665.109 144.85 665.109 148.545C665.109 152.239 667.354 155.143 671.292 155.143C675.23 155.143 677.476 152.239 677.476 148.545Z" fill="black"/>
<path d="M696.584 160.291H690.295V136.796H699.797C705.776 136.796 709.089 140.319 709.089 145.125C709.089 148.234 707.601 150.689 704.802 151.967L709.675 160.297H702.867L698.718 152.935H696.578V160.297L696.584 160.291ZM699.487 148.129C701.628 148.129 702.767 147.056 702.767 145.12C702.767 143.184 701.628 142.111 699.487 142.111H696.584V148.123H699.487V148.129Z" fill="black"/>
<path d="M720.557 142.083H714.34V136.796H733.067V142.083H726.851V160.291H720.562V142.083H720.557Z" fill="black"/>
<path d="M737.107 156.288L741.67 152.864C742.809 154.28 744.225 155.419 746.576 155.419C748.445 155.419 749.546 154.866 749.546 153.55C749.546 152.549 748.782 152.062 747.228 151.548L744.463 150.613C741.039 149.473 738.622 147.399 738.622 143.528C738.622 138.898 742.455 136.515 746.636 136.515C750.818 136.515 753.268 138.002 754.651 139.623L751.056 143.39C750.088 142.388 748.843 141.697 746.979 141.697C745.458 141.697 744.701 142.388 744.701 143.323C744.701 144.258 745.221 144.673 746.36 145.049L749.468 146.083C754.164 147.637 755.757 149.883 755.757 153.201C755.757 157.521 753.063 160.629 746.841 160.629C741.554 160.629 738.55 158.207 737.096 156.276L737.107 156.288Z" fill="black"/>
<path d="M773.9 136.796H782.988C789.757 136.796 794.873 141.254 794.873 148.543C794.873 155.833 789.757 160.291 782.988 160.291H773.9V136.796ZM782.296 154.97C786.096 154.97 788.447 152.448 788.447 148.543C788.447 144.639 786.096 142.117 782.296 142.117H780.189V154.97H782.296Z" fill="black"/>
<path d="M807.418 160.291H801.13V136.796H810.632C816.611 136.796 819.924 140.319 819.924 145.125C819.924 148.234 818.436 150.689 815.637 151.967L820.51 160.297H813.702L809.553 152.935H807.413V160.297L807.418 160.291ZM810.322 148.129C812.463 148.129 813.602 147.056 813.602 145.12C813.602 143.184 812.463 142.111 810.322 142.111H807.418V148.123H810.322V148.129Z" fill="black"/>
<path d="M827.079 136.796H833.368V160.291H827.079V136.796Z" fill="black"/>
<path d="M846.952 148.579V160.293H841.045V136.488C841.045 136.284 841.15 136.107 841.532 136.422L856.282 148.584V136.803H862.189V160.647C862.189 160.924 862.084 161.029 861.708 160.713L846.952 148.584V148.579Z" fill="black"/>
<path d="M883.262 136.796H890.065L882.255 146.989L891 160.291H883.572L877.974 151.757L876.005 154.174V160.291H869.717V136.796H876.005V146.541L883.262 136.796Z" fill="black"/>
<path d="M309.963 50.2158H325.521V108.34H309.963V85.6023H289.792V108.34H274.233V50.2158H289.792V72.5273H309.963V50.2158Z" fill="black"/>
<path d="M347.125 50.2158H364.221L375.675 71.4986L387.13 50.2158H403.457L383.197 85.4309V108.34H367.639V85.8623L347.125 50.2158Z" fill="black"/>
<path d="M425.074 50.2158H447.557C464.31 50.2158 476.959 61.2444 476.959 79.2805C476.959 97.3167 464.31 108.34 447.557 108.34H425.074V50.2158ZM445.843 95.1762C455.245 95.1762 461.058 88.9374 461.058 79.2805C461.058 69.6236 455.245 63.3793 445.843 63.3793H440.627V95.1762H445.843Z" fill="black"/>
<path d="M516.518 108.34H500.96V50.2158H524.466C539.256 50.2158 547.458 58.9325 547.458 70.8128C547.458 78.5062 543.785 84.5736 536.861 87.7372L548.913 108.334H532.071L521.811 90.1266H516.513V108.334L516.518 108.34ZM523.697 78.2518C528.996 78.2518 531.817 75.6025 531.817 70.8183C531.817 66.0341 528.996 63.3848 523.697 63.3848H516.518V78.2573H523.697V78.2518Z" fill="black"/>
<path d="M607.029 101.333H586.77L583.866 108.341H568.65L596.946 49.1882C597.201 48.5909 597.715 48.5909 597.97 49.1882L626.177 108.341H610.104L607.029 101.333ZM591.559 90.0503H602.073L596.775 77.7386L591.559 90.0503Z" fill="black"/>
<path d="M652.403 63.2963H637.017V50.2158H683.343V63.2963H667.956V108.345H652.398L652.403 63.2963Z" fill="black"/>
<path d="M707.778 50.2158H723.337V108.34H707.778V50.2158Z" fill="black"/>
<path d="M748.034 79.2802C748.034 61.7584 762.481 49.5352 779.234 49.5352C795.987 49.5352 810.433 61.7584 810.433 79.2802C810.433 96.802 795.987 109.108 779.234 109.108C762.481 109.108 748.034 96.802 748.034 79.2802ZM794.532 79.2802C794.532 70.1321 788.979 63.036 779.234 63.036C769.488 63.036 763.935 70.1321 763.935 79.2802C763.935 88.4282 769.494 95.6073 779.234 95.6073C788.974 95.6073 794.532 88.4282 794.532 79.2802Z" fill="black"/>
<path d="M849.4 79.3634V108.34H834.782V49.4469C834.782 48.9326 835.037 48.5067 835.977 49.2755L872.475 79.3634V50.2157H887.093V109.197C887.093 109.883 886.839 110.137 885.899 109.368L849.4 79.3634Z" fill="black"/>
</svg>
