<svg width="189" height="35" viewBox="0 0 189 35" fill="none" xmlns="http://www.w3.org/2000/svg">
<g clip-path="url(#clip0_3356_119)">
<mask id="mask0_3356_119" style="mask-type:luminance" maskUnits="userSpaceOnUse" x="0" y="0" width="189" height="35">
<path d="M189 0H0V35H189V0Z" fill="white"/>
</mask>
<g mask="url(#mask0_3356_119)">
<path d="M6.9035 11.4074C7.83979 11.8327 8.65739 12.5527 9.26601 13.4878C9.80499 14.3849 10.0838 15.4608 10.0615 16.5573C10.0615 18.2867 9.59147 19.6802 8.65146 20.7377C7.71144 21.7951 6.46619 22.3241 4.91572 22.3246C3.77643 22.3704 2.65662 21.9703 1.73352 21.1874C0.850541 20.3811 0.236834 19.2382 -0.000976562 17.9573L1.73352 16.9556C1.89342 17.9327 2.29611 18.8329 2.89114 19.5435C3.44148 20.1358 4.16843 20.4518 4.91572 20.4234C5.76954 20.4679 6.60439 20.1199 7.24203 19.4539C7.53567 19.132 7.76686 18.7402 7.91998 18.3047C8.07311 17.8693 8.14459 17.4005 8.12961 16.93C8.14366 16.1387 7.92536 15.3657 7.51118 14.7401C7.00865 14.0418 6.36577 13.5006 5.64031 13.1651L3.68692 12.1907C2.75088 11.782 1.92635 11.0854 1.30019 10.1743C0.767594 9.31779 0.491727 8.2793 0.515484 7.22033C0.503695 6.59183 0.611982 5.9682 0.832438 5.39494C1.05289 4.82169 1.37995 4.31329 1.78974 3.90687C2.69433 3.00994 3.85336 2.5425 5.03803 2.59682C5.91373 2.57046 6.77951 2.8188 7.54557 3.31607C8.26518 3.81276 8.84062 4.55112 9.19722 5.43533L7.61525 6.61693C7.32239 5.97606 6.90983 5.42072 6.40828 4.99223C5.96217 4.63689 5.43346 4.45079 4.89388 4.45918C4.57136 4.4447 4.24958 4.50531 3.94722 4.63749C3.64485 4.76966 3.36792 4.97078 3.13248 5.22918C2.90686 5.48222 2.72928 5.78801 2.61129 6.12666C2.49331 6.46531 2.43755 6.82924 2.44765 7.19478C2.4372 7.82846 2.62443 8.44489 2.97428 8.92867C3.42833 9.50047 3.98748 9.94401 4.60949 10.2258L6.9035 11.4074ZM27.9157 20.2435C28.7766 20.2474 29.6293 20.0486 30.4232 19.659C31.2267 19.2617 31.9557 18.6835 32.5686 17.9573C33.1853 17.2427 33.674 16.3913 34.0062 15.453C34.3367 14.512 34.5045 13.5035 34.4999 12.4861C34.5037 11.4556 34.334 10.4343 34.0005 9.48062C33.6719 8.53781 33.1849 7.68182 32.5683 6.96343C31.9591 6.24276 31.2336 5.67088 30.434 5.28098C29.6357 4.89465 28.7796 4.69822 27.9157 4.70313C27.0465 4.69736 26.185 4.89329 25.3809 5.27958C24.5833 5.66477 23.8619 6.23794 23.2616 6.96343C22.6451 7.68762 22.1572 8.54754 21.8261 9.49357C21.4956 10.4436 21.3278 11.4603 21.3324 12.4861C21.3268 13.4987 21.4925 14.5027 21.8199 15.4401C22.1547 16.3817 22.6446 17.237 23.2616 17.9573C23.874 18.6858 24.603 19.2662 25.407 19.6653C26.2017 20.0527 27.0548 20.2493 27.9157 20.2435ZM36.4985 12.4861C36.5048 13.7904 36.2879 15.0831 35.8606 16.2878C35.4339 17.4822 34.8029 18.5618 34.0065 19.4602C33.2002 20.3805 32.2476 21.1071 31.2026 21.5987C30.1591 22.0965 29.0428 22.3517 27.916 22.3501C26.7926 22.3524 25.6797 22.097 24.6402 21.5983C23.5995 21.1044 22.6509 20.378 21.8474 19.4598C21.0461 18.5572 20.4096 17.4737 19.9765 16.2748C19.5469 15.0753 19.3285 13.7867 19.3344 12.4861C19.3281 11.1792 19.5465 9.88419 19.9765 8.67808C20.4085 7.47658 21.0451 6.39064 21.8474 5.48643C22.6486 4.57285 23.5957 3.85275 24.6345 3.36717C25.6769 2.87311 26.7911 2.62018 27.9157 2.62238C29.0456 2.61977 30.1654 2.87267 31.2133 3.36717C32.2544 3.85158 33.2035 4.57177 34.0062 5.48643C34.8036 6.38632 35.4346 7.46821 35.8603 8.66512C36.2876 9.87651 36.5042 11.1755 36.4973 12.4861H36.4985ZM47.0872 21.8486V3.04657H50.4342C51.3068 3.01869 52.1796 3.08961 53.0404 3.25833C53.5593 3.3794 54.0506 3.62684 54.4825 3.98458C54.9952 4.43108 55.4044 5.02065 55.6727 5.69958C55.9581 6.41721 56.1025 7.20056 56.0952 7.99208C56.1223 8.87711 55.9091 9.74941 55.4861 10.4837C55.0507 11.1753 54.4248 11.6698 53.7139 11.8837C54.6048 12.0149 55.4154 12.5526 55.969 13.38C56.542 14.2812 56.8343 15.3847 56.7974 16.5072C56.7998 17.2462 56.6806 17.9788 56.4463 18.665C56.227 19.3234 55.8945 19.9223 55.4696 20.4244C55.0012 20.9566 54.4227 21.3373 53.7908 21.529C53.1251 21.743 52.0057 21.85 50.4327 21.85L47.0872 21.8486ZM48.95 13.0384V19.8984H50.4315C51.1669 19.9193 51.9025 19.8725 52.6316 19.7584C53.0187 19.6933 53.3882 19.5265 53.7124 19.2705C54.0556 18.9771 54.3252 18.5814 54.4932 18.1246C54.6872 17.6156 54.7845 17.0634 54.7785 16.5062C54.7914 15.8876 54.6745 15.2747 54.4382 14.7212C54.2163 14.2217 53.8729 13.8105 53.4513 13.5396C53.1765 13.3516 52.8757 13.2214 52.5626 13.1546C52.0434 13.0624 51.5184 13.0238 50.9934 13.0391H48.95V13.0384ZM48.95 4.98558V11.2786H50.4315C51.7922 11.2786 52.7506 11.0473 53.3066 10.5849C53.8626 10.1224 54.1406 9.34331 54.1406 8.24758C54.1406 7.04031 53.8828 6.19483 53.367 5.71113C52.8512 5.22743 51.8727 4.98558 50.4315 4.98558H48.95ZM67.1766 21.8486V3.04657H75.6481V5.08848H69.0872V10.4827H75.6493V12.5631H69.0872V19.7696H75.6493V21.8503L67.1766 21.8486ZM86.3457 21.8486V3.04657H90.1206C90.9131 3.01801 91.706 3.089 92.4855 3.25833C92.9653 3.38777 93.416 3.63508 93.8079 3.98388C94.3002 4.44679 94.682 5.05068 94.9162 5.73703C95.1862 6.50905 95.3206 7.33681 95.3113 8.17093C95.3113 9.71209 94.9436 10.883 94.2084 11.6835C93.4731 12.4841 92.3966 12.8844 90.9789 12.8844H90.6377L96.7718 21.8489H94.3465L88.4851 12.8844H88.2109V21.8489L86.3457 21.8486ZM88.2112 4.93413V11.2271H89.6706C91.163 11.2271 92.1617 11.0024 92.6665 10.553C93.1712 10.1036 93.4237 9.31811 93.4237 8.19648C93.4237 6.98921 93.164 6.14373 92.6446 5.66003C92.1253 5.17633 91.134 4.93448 89.6709 4.93448L88.2112 4.93413ZM119.948 21.8489V3.04657H121.859V21.8489H119.948ZM139.052 11.4074C139.989 11.8324 140.807 12.5524 141.416 13.4878C141.955 14.3849 142.234 15.4608 142.212 16.5573C142.212 18.2867 141.742 19.6802 140.802 20.7377C139.862 21.7951 138.617 22.3241 137.066 22.3246C135.927 22.3706 134.807 21.9707 133.884 21.1881C133.001 20.3818 132.387 19.2389 132.149 17.958L133.884 16.9563C134.044 17.9334 134.446 18.8336 135.041 19.5442C135.592 20.1365 136.319 20.4525 137.066 20.4241C137.92 20.4686 138.755 20.1206 139.392 19.4546C139.686 19.1327 139.917 18.7407 140.07 18.3052C140.224 17.8696 140.295 17.4007 140.28 16.93C140.294 16.1386 140.075 15.3656 139.661 14.7401C139.159 14.0418 138.516 13.5006 137.79 13.1651L135.837 12.1889C134.901 11.7803 134.076 11.0837 133.45 10.1726C132.917 9.31604 132.642 8.27755 132.665 7.21858C132.653 6.5902 132.762 5.96663 132.982 5.39338C133.202 4.82013 133.529 4.31168 133.938 3.90513C134.843 3.00819 136.002 2.54075 137.187 2.59508C138.062 2.56871 138.928 2.81705 139.694 3.31433C140.414 3.81101 140.989 4.54937 141.346 5.43358L139.766 6.61518C139.473 5.97431 139.06 5.41897 138.559 4.99048C138.113 4.63514 137.584 4.44904 137.044 4.45743C136.722 4.44295 136.4 4.50356 136.098 4.63574C135.795 4.76791 135.518 4.96903 135.283 5.22743C135.057 5.48066 134.879 5.78674 134.761 6.12571C134.643 6.46469 134.588 6.82895 134.598 7.19478C134.588 7.82846 134.775 8.44489 135.125 8.92867C135.579 9.50047 136.138 9.94401 136.76 10.2258L139.052 11.4074ZM152.22 21.8489V3.04657H154.129V10.2772H162.667V3.04657H164.609V21.8489H162.667V12.4091H154.129V21.8489H152.22Z" fill="black"/>
<path d="M182.005 5.20876V0.786161H180.8V0.219161H183.717V0.786161H182.518V5.20876H182.005ZM186.268 5.40301L184.943 1.81831L184.407 5.20876H183.912L184.777 0.0228107L186.268 4.14896L187.759 0.0224609L188.623 5.20876H188.128L187.586 1.81831L186.268 5.40301Z" fill="black"/>
<path d="M109.29 24.7492L108.116 25.4684C107.25 23.5682 106.596 21.546 106.168 19.4512C105.726 17.2567 105.507 15.0085 105.516 12.7536C105.499 10.4375 105.714 8.12697 106.157 5.8695C106.571 3.81482 107.23 1.83881 108.116 0L109.29 0.63C108.506 2.43547 107.918 4.3489 107.54 6.32555C107.151 8.43752 106.961 10.5932 106.975 12.7536C106.957 14.9465 107.149 17.1348 107.546 19.278C107.909 21.187 108.497 23.0281 109.29 24.7492Z" fill="black"/>
<path d="M174.745 24.7491C175.539 23.028 176.126 21.1869 176.49 19.2779C176.887 17.1347 177.078 14.9464 177.061 12.7536C177.074 10.5931 176.885 8.43745 176.495 6.32548C176.118 4.34917 175.53 2.4361 174.745 0.630976L175.907 0.000976562C176.8 1.83752 177.463 3.81404 177.877 5.87048C178.321 8.12754 178.536 10.4377 178.52 12.7536C178.529 15.0084 178.31 17.2566 177.867 19.4512C177.439 21.5477 176.78 23.5703 175.907 25.4684L174.745 24.7491Z" fill="black"/>
</g>
</g>
<defs>
<clipPath id="clip0_3356_119">
<rect width="189" height="35" fill="white"/>
</clipPath>
</defs>
</svg>
